<?xml version="1.0" ?><!DOCTYPE svg  PUBLIC '-//W3C//DTD SVG 1.1//EN'  'http://www.w3.org/Graphics/SVG/1.1/DTD/svg11.dtd'><svg enable-background="new 0 0 24 24" height="24px" id="Layer_1" version="1.1" viewBox="0 0 24 24" width="24px" xml:space="preserve" xmlns="http://www.w3.org/2000/svg" xmlns:xlink="http://www.w3.org/1999/xlink"><g><g><path d="M19.8,23.5H4.4c-2.1,0-3.8-1.7-3.8-3.8V4.3c0-2.1,1.7-3.8,3.8-3.8h15.3c2.1,0,3.8,1.7,3.8,3.8v15.3    C23.6,21.8,21.9,23.5,19.8,23.5z M4.4,1.5c-1.6,0-2.8,1.3-2.8,2.8v15.3c0,1.6,1.3,2.8,2.8,2.8h15.3c1.6,0,2.8-1.3,2.8-2.8V4.3    c0-1.6-1.3-2.8-2.8-2.8H4.4z"/></g><g><g><path d="M12.1,15.8c-0.2,0-0.4,0-0.5-0.1l-6.5-3c-0.3-0.1-0.4-0.4-0.4-0.7c0-0.3,0.2-0.6,0.4-0.7l1.3-0.6c0.2-0.1,0.5,0,0.7,0.2     c0.1,0.2,0,0.5-0.2,0.7L6,12l6,2.8c0.1,0,0.1,0,0.2,0l6.1-2.8l-0.8-0.4c-0.3-0.1-0.4-0.4-0.2-0.7c0.1-0.3,0.4-0.4,0.7-0.2     l1.3,0.6c0.3,0.1,0.4,0.4,0.4,0.7c0,0.3-0.2,0.6-0.4,0.7l-6.5,3C12.5,15.8,12.3,15.8,12.1,15.8z"/></g><g><path d="M12.4,17.1" fill="none" stroke="#000000" stroke-linecap="round" stroke-linejoin="round" stroke-miterlimit="10"/></g><g><path d="M12.1,19.7c-0.2,0-0.4,0-0.5-0.1l-6.5-3c-0.3-0.1-0.4-0.4-0.4-0.7c0-0.3,0.2-0.6,0.4-0.7l1.3-0.6c0.2-0.1,0.5,0,0.7,0.2     c0.1,0.2,0,0.5-0.2,0.7L6,15.9l6.1,2.8c0.1,0,0.1,0,0.2,0l6.1-2.8l-0.8-0.4c-0.3-0.1-0.4-0.4-0.2-0.7c0.1-0.3,0.4-0.4,0.7-0.2     l1.3,0.6c0.3,0.1,0.4,0.4,0.4,0.7c0,0.3-0.2,0.6-0.4,0.7l-6.5,3C12.5,19.6,12.3,19.7,12.1,19.7z"/></g><g><path d="M12.1,12c-0.2,0-0.3,0-0.5-0.1l-6.5-3C4.8,8.7,4.6,8.5,4.6,8.2c0-0.3,0.2-0.6,0.4-0.7l6.5-3c0.4-0.2,0.8-0.2,1.1,0l6.5,3     c0.3,0.1,0.4,0.4,0.4,0.7c0,0.3-0.2,0.6-0.4,0.7l-6.5,3C12.5,11.9,12.3,12,12.1,12z M6,8.2l6.1,2.8c0,0,0.1,0,0.1,0l6-2.8l-6-2.8     c-0.1,0-0.2,0-0.3,0L6,8.2z"/></g></g></g></svg>